HIERARCHY
ROOT Hips
{
	OFFSET 0.000000 88.474243 0.000000
	CHANNELS 6 Xposition Yposition Zposition Zrotation Yrotation Xrotation 
	JOINT Hips_Spine
	{
		OFFSET 0.000000 0.000000 0.000000
		CHANNELS 3 Zrotation Yrotation Xrotation
		JOINT Spine
		{
			OFFSET 0.005100 8.711998 -0.691000
			CHANNELS 3 Zrotation Yrotation Xrotation
			JOINT Spine1
			{
				OFFSET -0.009200 8.660301 -1.275000
				CHANNELS 3 Zrotation Yrotation Xrotation
				JOINT Spine2
				{
					OFFSET 0.006300 9.852501 -1.857000
					CHANNELS 3 Zrotation Yrotation Xrotation
					JOINT Spine2_Neck
					{
						OFFSET 0.000000 0.000000 0.000000
						CHANNELS 3 Zrotation Yrotation Xrotation
						JOINT Neck
						{
							OFFSET 0.016300 11.420799 -0.263300
							CHANNELS 3 Zrotation Yrotation Xrotation
							End Site #name: Head
							{
								OFFSET -0.019200 9.262405 2.362500
							}
						}
					}
					JOINT Spine2_LeftShoulder
					{
						OFFSET 0.000000 0.000000 0.000000
						CHANNELS 3 Zrotation Yrotation Xrotation
						JOINT LeftShoulder
						{
							OFFSET 5.616900 6.732201 -0.345700
							CHANNELS 3 Zrotation Yrotation Xrotation
							JOINT LeftArm
							{
								OFFSET 10.664888 -0.183372 -2.440700
								CHANNELS 3 Zrotation Yrotation Xrotation
								JOINT LeftForeArm
								{
									OFFSET 27.459126 0.000000 0.000000
									CHANNELS 3 Zrotation Yrotation Xrotation
									End Site #name: LeftHand
									{
										OFFSET 21.306858 0.000000 0.000000
									}
								}
							}
						}
					}
					JOINT Spine2_RightShoulder
					{
						OFFSET 0.000000 0.000000 0.000000
						CHANNELS 3 Zrotation Yrotation Xrotation
						JOINT RightShoulder
						{
							OFFSET -5.580300 6.737503 -0.344400
							CHANNELS 3 Zrotation Yrotation Xrotation
							JOINT RightArm
							{
								OFFSET -10.679335 -0.188484 -2.383900
								CHANNELS 3 Zrotation Yrotation Xrotation
								JOINT RightForeArm
								{
									OFFSET -27.503529 0.000000 0.000000
									CHANNELS 3 Zrotation Yrotation Xrotation
									End Site #name: RightHand
									{
										OFFSET -21.306808 0.000000 0.000000
									}
								}
							}
						}
					}
				}
			}
		}
	}
	JOINT Hips_LeftUpLeg
	{
		OFFSET 0.000000 0.000000 0.000000
		CHANNELS 3 Zrotation Yrotation Xrotation
		JOINT LeftUpLeg
		{
			OFFSET 6.857700 -6.739601 0.312100
			CHANNELS 3 Zrotation Yrotation Xrotation
			JOINT LeftLeg
			{
				OFFSET -0.367590 -34.731552 -4.572400
				CHANNELS 3 Zrotation Yrotation Xrotation
				End Site #name: LeftFoot
				{
					OFFSET 0.367590 -34.656704 -6.067400
				}
			}
		}
	}
	JOINT Hips_RightUpLeg
	{
		OFFSET 0.000000 0.000000 0.000000
		CHANNELS 3 Zrotation Yrotation Xrotation
		JOINT RightUpLeg
		{
			OFFSET -6.876100 -6.733299 0.301000
			CHANNELS 3 Zrotation Yrotation Xrotation
			JOINT RightLeg
			{
				OFFSET 0.347353 -34.795158 -4.515900
				CHANNELS 3 Zrotation Yrotation Xrotation
				End Site #name: RightFoot
				{
					OFFSET -0.347353 -34.589367 -6.070300
				}
			}
		}
	}
}
MOTION
Frames: 12
Frame Time: 0.041667
4.414834 1.500143 1.525141 -3.698729 -10.316596 -0.821405 -0.000000 0.000000 0.000000 -0.294917 0.286238 5.979706 -0.962044 1.097387 7.510143 0.000000 0.000000 0.000000 -0.886301 0.519111 7.953081 1.137407 -1.133534 2.750338 0.114307 1.826659 8.929461 4.088878 3.340829 -0.087807 -76.822735 -15.995042 27.347627 -153.444866 -84.209681 154.661779 -1.870206 0.064365 7.124647 -0.980055 -3.327040 1.697374 73.757038 -10.429159 6.375195 164.870208 83.663675 163.662750 0.000000 0.000000 0.000000 2.098416 2.016212 -22.368510 0.926395 0.189077 32.836929 0.000000 -0.000000 0.000000 -6.130187 -2.073422 -16.991613 0.361059 1.575350 21.618459 
4.561020 1.503019 1.517077 -3.686352 -10.552743 -0.857147 -0.000000 0.000000 0.000000 -0.304085 0.299565 5.996540 -0.947250 1.109184 7.553848 0.000000 0.000000 0.000000 -0.858186 0.555990 7.984966 1.184595 -1.020689 2.677888 0.124497 1.876762 8.956487 4.225683 3.581500 -0.074183 -76.721392 -15.761642 26.974887 -151.736404 -84.565364 152.959354 -1.859895 0.049522 7.120321 -1.008875 -3.143085 1.678740 74.206872 -10.267856 6.288244 164.494949 83.653873 163.146020 0.000000 0.000000 0.000000 1.990145 2.195158 -22.221001 0.984530 0.219754 32.599338 0.000000 -0.000000 0.000000 -6.338028 -2.399932 -16.817244 0.276942 1.509047 21.425055 
4.683127 1.506701 1.504049 -3.792526 -10.818821 -0.859851 -0.000000 0.000000 0.000000 -0.306354 0.309775 5.994417 -0.930391 1.118382 7.585154 0.000000 0.000000 0.000000 -0.830059 0.584711 8.025515 1.239356 -0.925975 2.641259 0.129008 1.921517 8.981169 4.370006 3.833864 -0.054379 -76.685718 -15.513430 26.599231 -150.008370 -84.870476 151.235553 -1.840351 0.017810 7.111231 -1.016844 -2.989138 1.662262 74.713989 -10.143033 6.073239 163.294448 83.875058 161.760663 0.000000 0.000000 0.000000 1.894122 2.339544 -22.038480 1.002260 0.217170 32.266186 0.000000 -0.000000 -0.000000 -6.468066 -2.800782 -16.644475 0.164968 1.400141 21.275077 
4.782482 1.511236 1.486191 -4.004606 -11.123558 -0.802476 -0.000000 0.000000 0.000000 -0.306283 0.311394 5.974387 -0.911523 1.127119 7.598436 0.000000 0.000000 0.000000 -0.807483 0.609266 8.084513 1.290405 -0.841563 2.635633 0.129524 1.959152 8.995360 4.528699 4.078836 -0.042678 -76.671651 -15.266899 26.198596 -148.570595 -85.092254 149.801801 -1.818220 -0.025445 7.110556 -0.978757 -2.893342 1.648718 75.224350 -10.085791 5.688252 161.382011 84.229031 159.619894 0.000000 0.000000 0.000000 1.805924 2.474969 -21.846589 0.993297 0.212878 31.893592 0.000000 -0.000000 -0.000000 -6.513527 -3.236508 -16.466476 0.029943 1.272830 21.104062 
4.859328 1.515200 1.463968 -4.312769 -11.442009 -0.661231 -0.000000 0.000000 0.000000 -0.287714 0.309063 5.934860 -0.890683 1.133437 7.605103 0.000000 0.000000 0.000000 -0.789933 0.629208 8.169581 1.346029 -0.773818 2.665739 0.124874 1.989697 9.008599 4.662035 4.312717 -0.036648 -76.678781 -14.986107 25.797614 -147.166401 -85.282895 148.395218 -1.792049 -0.082322 7.114798 -0.854486 -2.824790 1.647565 75.674160 -10.114590 5.104937 159.319959 84.504882 157.287212 0.000000 0.000000 0.000000 1.692237 2.599501 -21.714016 0.975960 0.226021 31.540287 0.000000 -0.000000 -0.000000 -6.474603 -3.684707 -16.335666 -0.134139 1.113386 20.930930 
4.907058 1.517695 1.434017 -4.504367 -11.723533 -0.488290 -0.000000 0.000000 -0.000000 -0.256639 0.298893 5.861311 -0.870146 1.135881 7.600384 0.000000 0.000000 0.000000 -0.782019 0.649028 8.252596 1.390994 -0.719784 2.686202 0.115737 2.022601 9.013359 4.724013 4.529526 -0.038261 -76.692597 -14.645686 25.397318 -145.732991 -85.445249 146.950245 -1.783961 -0.111761 7.147122 -0.761547 -2.666470 1.671988 75.954250 -10.041259 4.559202 158.582788 84.448652 156.324078 0.000000 0.000000 0.000000 1.577894 2.724357 -21.611575 0.983221 0.288446 31.320303 0.000000 -0.000000 -0.000000 -6.371771 -4.119570 -16.363706 -0.284919 0.964788 20.757249 
4.922366 1.518382 1.394131 -4.570890 -11.949077 -0.286292 -0.000000 0.000000 -0.000000 -0.215349 0.278552 5.760397 -0.849644 1.133880 7.587281 0.000000 0.000000 0.000000 -0.782965 0.669917 8.333762 1.426325 -0.681096 2.703473 0.104846 2.059298 9.014595 4.713384 4.727133 -0.053398 -76.674238 -14.260218 24.972117 -143.704254 -85.649896 144.897301 -1.792805 -0.114372 7.204898 -0.747164 -2.413348 1.719384 76.075467 -9.760511 4.064103 159.002630 84.125124 156.564684 0.000000 0.000000 0.000000 1.435197 2.841166 -21.543960 1.051085 0.434035 31.227524 0.000000 -0.000000 -0.000000 -6.273878 -4.568414 -16.556065 -0.411751 0.819540 20.620871 
4.902791 1.518170 1.343136 -4.509494 -12.129926 -0.103887 -0.000000 0.000000 -0.000000 -0.149769 0.251887 5.632334 -0.831036 1.127472 7.570179 0.000000 0.000000 0.000000 -0.794202 0.689588 8.410772 1.443069 -0.667524 2.705028 0.086919 2.102704 9.018614 4.598772 4.894940 -0.077200 -76.624135 -13.820277 24.493631 -140.696338 -85.917199 141.845280 -1.813976 -0.089024 7.282721 -0.772603 -2.074826 1.779902 76.002440 -9.352331 3.689488 159.791431 83.709680 157.226666 0.000000 0.000000 0.000000 1.268064 2.967982 -21.412790 1.193355 0.667441 31.128903 -0.000000 -0.000000 -0.000000 -6.190811 -4.961152 -16.856545 -0.510023 0.674495 20.493237 
4.843604 1.520116 1.278812 -4.330146 -12.326710 0.016588 -0.000000 0.000000 -0.000000 -0.066808 0.220438 5.465383 -0.815831 1.116476 7.545070 0.000000 0.000000 0.000000 -0.815096 0.709260 8.479079 1.438430 -0.671123 2.684810 0.064179 2.149426 9.018293 4.386078 5.020541 -0.111299 -76.538202 -13.344487 23.950605 -136.533438 -86.220660 137.622471 -1.847882 -0.033554 7.382461 -0.854399 -1.668074 1.847937 75.762225 -8.967303 3.459921 160.922042 83.187100 158.291279 0.000000 0.000000 0.000000 1.112555 3.101197 -21.189921 1.423927 0.977314 30.988971 -0.000000 -0.000000 -0.000000 -6.113906 -5.279971 -17.203170 -0.593824 0.516026 20.337432 
4.743356 1.528719 1.207198 -4.151364 -12.509553 0.072294 -0.000000 0.000000 -0.000000 0.004817 0.165897 5.322175 -0.810839 1.096536 7.526692 0.000000 0.000000 0.000000 -0.844665 0.718276 8.486451 1.409215 -0.705520 2.576001 0.042231 2.184814 9.024729 4.102812 5.023084 -0.151332 -76.414743 -12.950494 23.503830 -132.121874 -86.494225 133.149934 -1.879453 0.011242 7.460276 -0.934116 -1.376315 1.872726 75.438395 -8.912411 3.109174 161.431980 82.914116 158.742630 0.000000 0.000000 0.000000 0.999324 3.244317 -20.932633 1.691219 1.335259 30.779258 -0.000000 -0.000000 -0.000000 -6.041167 -5.417980 -17.455033 -0.648080 0.407373 20.270459 
4.600927 1.548823 1.134799 -3.976549 -12.668188 0.050215 -0.000000 0.000000 -0.000000 0.069499 0.093607 5.190589 -0.815853 1.067706 7.512698 0.000000 0.000000 0.000000 -0.879988 0.716893 8.427623 1.352366 -0.773591 2.373483 0.021715 2.205146 9.026663 3.785928 4.927216 -0.197877 -76.260594 -12.692845 23.128635 -127.672404 -86.720473 128.644890 -1.906582 0.045176 7.516340 -0.895124 -1.188310 1.870002 74.966263 -9.122160 2.812475 161.634542 82.837790 158.886599 0.000000 0.000000 0.000000 0.929432 3.398734 -20.659793 1.969517 1.715110 30.535694 -0.000000 -0.000000 -0.000000 -5.982408 -5.409013 -17.578089 -0.672286 0.340708 20.276206 
4.415372 1.585035 1.067408 -3.823989 -12.753998 -0.009582 -0.000000 0.000000 -0.000000 0.114058 0.003559 5.077705 -0.830971 1.033070 7.492957 0.000000 0.000000 0.000000 -0.917157 0.705198 8.308715 1.285297 -0.866486 2.087132 0.006654 2.217101 9.032597 3.458251 4.730501 -0.242340 -76.108755 -12.502021 22.874709 -123.756472 -86.900551 124.671475 -1.926049 0.061382 7.536122 -0.694822 -1.104251 1.845084 74.282337 -9.534854 2.640837 161.304554 83.051520 158.492945 0.000000 0.000000 0.000000 0.892495 3.505654 -20.359393 2.282777 2.094212 30.306104 -0.000000 -0.000000 -0.000000 -5.948845 -5.294898 -17.530482 -0.666797 0.312982 20.370675 
